<svg width="116" height="92" viewBox="0 0 116 92" fill="none" xmlns="http://www.w3.org/2000/svg">
<path d="M23.2305 91.9482C23.4825 91.9805 23.7391 92 24 92H23.2305V91.9482ZM36.3779 9.54102L29.3574 10.4268C28.0815 10.5954 27.4436 10.9745 27.4434 11.5645C27.4434 12.0703 28.1238 13.7574 29.4854 16.624L31.9951 21.376C30.7765 22.4765 30 24.1393 30 26C30 29.3137 32.4624 32 35.5 32C36.1718 32 36.815 31.8675 37.4102 31.627L47.2754 50.3027C46.4768 51.3217 46 52.605 46 54C46 57.3137 48.6863 60 52 60C55.3137 60 58 57.3137 58 54C58 50.6863 55.3137 48 52 48C50.1833 48 48.5563 48.8084 47.4561 50.084V13.8467C50.6231 13.1765 53 10.3666 53 7C53 6.66041 52.9745 6.32666 52.9277 6H72.6016V9.54102L65.5811 10.4268C64.22 10.5954 63.4117 10.9745 63.1562 11.5645C62.901 12.0703 62.7734 13.7574 62.7734 16.624V36.1191C62.0543 35.4266 61.0772 35 60 35C57.7909 35 56 36.7909 56 39C56 41.2091 57.7909 43 60 43C61.0775 43 62.0542 42.5727 62.7734 41.8799V50.6445L80.2461 30.9941C84.5505 30.8722 88 27.5649 88 23.5C88 23.1176 87.969 22.742 87.9102 22.375L93.0244 16.624C95.4922 13.8417 96.7684 12.1547 96.8535 11.5645C97.0234 10.9744 96.4277 10.5954 95.0664 10.4268L88.0459 9.54102V6H113.958V9.54102L111.291 9.87695C109.881 8.70973 108.029 8 106 8C101.582 8 98 11.3579 98 15.5C98 16.2554 98.1202 16.9843 98.3418 17.6719L81.4092 36.6064L97.3574 68.9414C96.3992 68.3473 95.2439 68 94 68C90.6863 68 88 70.4624 88 73.5C88 76.5376 90.6863 79 94 79C97.0559 79 99.5752 76.9054 99.9492 74.1973L102.957 80.2949C102.383 80.6465 102 81.2779 102 82C102 83.1046 102.895 84 104 84C104.29 84 104.565 83.9365 104.814 83.8252C105.143 84.4153 105.424 84.906 105.661 85.2969C106.172 86.14 106.767 86.6885 107.448 86.9414C108.129 87.1943 109.065 87.4046 110.256 87.5732L116 88.459V92H91.748L81.2891 69.8672C81.5102 69.9514 81.7493 70 82 70C83.1046 70 84 69.1046 84 68C84 66.8954 83.1046 66 82 66C81.1189 66 80.3721 66.5702 80.1055 67.3613L71.0703 48.2412L62.7734 57.5996V66.8037C58.7962 68.3852 56 72.1306 56 76.5C56 80.9777 58.9374 84.7979 63.0723 86.3076C63.0986 86.4078 63.1264 86.4925 63.1562 86.5615C63.4115 87.0674 64.2197 87.4046 65.5811 87.5732L72.6016 88.459V92H24C26.7475 92 29.0611 90.1526 29.7725 87.6328L30.251 87.5732C31.6125 87.4046 32.4215 87.0674 32.6768 86.5615C32.934 85.971 38.7035 84.2428 38.7041 81.377V73.9922C38.8023 73.9955 38.9009 74 39 74C43.4183 74 47 70.6421 47 66.5C47 62.3579 43.4183 59 39 59C38.9009 59 38.8023 59.0035 38.7041 59.0068V55.1973L31.3584 44.2734C32.371 43.1852 33 41.6732 33 40C33 36.6863 30.5376 34 27.5 34C26.5675 34 25.6894 34.2535 24.9199 34.7002L17.499 23.6641C21.3593 21.6695 24 17.6447 24 13C24 10.3868 23.1623 7.97056 21.7441 6H36.3779V9.54102ZM24 80C27.3137 80 30 82.6863 30 86C30 86.5663 29.9191 87.1135 29.7725 87.6328L23.2305 88.459V91.9482C20.2804 91.5704 18 89.0529 18 86C18 82.6863 20.6863 80 24 80ZM47.4902 85.5986C47.0866 82.9068 44.5767 81.0516 41.8848 81.4551C39.1929 81.8587 37.3377 84.3686 37.7412 87.0605C38.1448 89.7524 40.6547 91.6076 43.3467 91.2041C46.0385 90.8005 47.8937 88.2906 47.4902 85.5986ZM67 66C73.0751 66 78 70.701 78 76.5C78 82.299 73.0751 87 67 87C65.6158 87 64.2924 86.7531 63.0723 86.3076C62.8733 85.5513 62.7734 83.9078 62.7734 81.377V66.8037C64.0748 66.2863 65.5023 66 67 66ZM104 80C105.105 80 106 80.8954 106 82C106 82.8142 105.513 83.5132 104.814 83.8252C104.435 83.1424 103.993 82.3266 103.491 81.377L102.957 80.2949C103.261 80.1087 103.618 80 104 80ZM48.9775 78.2969C47.8854 78.4608 47.1332 79.4791 47.2969 80.5713C47.4608 81.6634 48.4791 82.4157 49.5713 82.252C50.6634 82.088 51.4157 81.0698 51.252 79.9775C51.088 78.8854 50.0698 78.1332 48.9775 78.2969ZM97.3574 68.9414C98.9518 69.93 100 71.6027 100 73.5C100 73.7363 99.9808 73.9688 99.9492 74.1973L97.3574 68.9414ZM38.7041 73.9922C34.423 73.8462 31 70.5492 31 66.5C31 62.4508 34.4229 59.1528 38.7041 59.0068V73.9922ZM81.2891 69.8672C80.536 69.5803 80 68.8538 80 68C80 67.7765 80.0378 67.562 80.1055 67.3613L81.2891 69.8672ZM78 42C74.6863 42 72 44.4624 72 47.5C72 50.5376 74.6863 53 78 53C81.3137 53 84 50.5376 84 47.5C84 44.4624 81.3137 42 78 42ZM47.4561 50.6445L47.2754 50.3027C47.3338 50.2282 47.3943 50.1556 47.4561 50.084V50.6445ZM31.3584 44.2734C30.3655 45.3405 29.0038 46 27.5 46C24.4624 46 22 43.3137 22 40C22 37.7035 23.1828 35.7087 24.9199 34.7002L31.3584 44.2734ZM62.7734 36.1191C63.5291 36.8468 64 37.8681 64 39C64 40.1317 63.5288 41.1523 62.7734 41.8799V36.1191ZM35.5 20C38.5376 20 41 22.6863 41 26C41 28.5808 39.5059 30.78 37.4102 31.627L31.9951 21.376C32.9468 20.5166 34.1681 20 35.5 20ZM80 16C84.0104 16 87.3311 18.7666 87.9102 22.375L80.2461 30.9941C80.1643 30.9965 80.0824 31 80 31C75.5817 31 72 27.6421 72 23.5C72 19.3579 75.5817 16 80 16ZM58.5859 23.3877C57.1577 23.6018 56.1736 24.9331 56.3877 26.3613C56.6018 27.7895 57.9331 28.7736 59.3613 28.5596C60.7895 28.3454 61.7736 27.0141 61.5596 25.5859C61.3454 24.1578 60.0141 23.1736 58.5859 23.3877ZM7.02051 10.4268C7.87122 10.5111 8.50913 10.6798 8.93457 10.9326C9.44509 11.1855 9.95628 11.7332 10.4668 12.5762C10.9774 13.335 11.7435 14.6848 12.7646 16.624L17.499 23.6641C15.8512 24.5155 13.9827 25 12 25C5.37258 25 0 19.6274 0 13C0 11.8197 0.172705 10.68 0.490234 9.60254L7.02051 10.4268ZM50 21C48.8954 21 48 21.8954 48 23C48 24.1046 48.8954 25 50 25C51.1046 25 52 24.1046 52 23C52 21.8954 51.1046 21 50 21ZM111.291 9.87695C112.952 11.2512 114 13.2602 114 15.5C114 19.6421 110.418 23 106 23C102.387 23 99.3353 20.7548 98.3418 17.6719L99.2793 16.624C100.981 14.7691 102.215 13.4193 102.98 12.5762C103.746 11.7332 104.385 11.1855 104.896 10.9326C105.406 10.6797 106.087 10.5111 106.938 10.4268L111.291 9.87695ZM46 0C49.5264 0 52.4424 2.6078 52.9277 6H47.4561V13.8467C46.9863 13.9461 46.4994 14 46 14C42.134 14 39 10.866 39 7C39 3.13401 42.134 0 46 0ZM58 7C56.8954 7 56 7.89543 56 9C56 10.1046 56.8954 11 58 11C59.1046 11 60 10.1046 60 9C60 7.89543 59.1046 7 58 7ZM2.25586 6C1.47825 7.08053 0.875729 8.29452 0.490234 9.60254L0 9.54102V6H2.25586ZM12 1C16.0143 1 19.5657 2.97287 21.7441 6H2.25586C4.43433 2.97287 7.98574 1 12 1Z" fill="white"/>
</svg>
